<?xml version="1.0" encoding="UTF-8"?>
<svg id="Layer_1" xmlns="http://www.w3.org/2000/svg" width="2000" height="2000" version="1.1" viewBox="0 0 2000 2000">
  <!-- Generator: Adobe Illustrator 29.5.1, SVG Export Plug-In . SVG Version: 2.1.0 Build 141)  -->
  <g>
    <g>
      <g>
        <path d="M1052.38,909.51l-43.74,119-21.36,18.3-98.67,10.18,21.36-58.99,1.02-3.05c-65.78,32.53-139.02,59.49-219.7,80.86-80.71,21.36-149.87,32.05-207.5,32.05-69.16,0-128.15-15.6-176.98-46.79,0-30.51,4.07-60.85,12.21-91.03,8.14-30.16,20-58.13,35.6-83.92,16.94-28.47,40.33-57.11,70.18-85.95,29.83-28.81,60.35-52.71,91.54-71.71l18.31,86.47c-49.5,25.77-96.29,58.66-140.36,98.65,31.86,16.28,72.21,24.41,121.03,24.41,54.25,0,126.46-9.65,216.65-28.98,90.17-19.33,169.18-42.22,237-68.66l21.36,13.23-14.24,45.76,70.18-7.11,6.11,17.29Z"/>
        <path d="M1046.28,892.2l19.2-2.02,29.16-3.06,319.84-33.58,6.11,17.29-43.74,119-21.36,18.32-368.2,38.65,59-154.61ZM1279.56,681.83c16.94,0,34.41,2.02,52.38,6.1,17.96,4.06,34.07,10.16,48.31,18.3l-62.05,92.57c-27.13-13.56-52.9-20.34-77.3-20.34-8.14,0-15.95,1.01-23.39,3.05l-38.65,43.72-22.38-12.2,100.69-130.19c4.74-.66,12.21-1.01,22.38-1.01ZM1128.98,668.25c16.94,0,34.41,2.02,52.38,6.1,17.96,4.06,34.07,10.16,48.31,18.3l-62.05,92.57c-27.13-13.56-52.9-20.34-77.3-20.34-8.14,0-15.95,1.01-23.39,3.05l-38.65,43.72-22.38-12.2,100.69-130.19c4.74-.66,12.21-1.01,22.38-1.01ZM1166.01,544.82c16.94,0,34.41,2.02,52.38,6.1,17.96,4.06,34.07,10.16,48.31,18.3l-62.05,92.57c-27.13-13.56-52.9-20.34-77.3-20.34-8.14,0-15.95,1.01-23.39,3.05l-38.65,43.72-22.38-12.2,100.69-130.19c4.74-.66,12.21-1.01,22.38-1.01Z"/>
        <path d="M1666.74,692.34c17.63,9.17,26.44,20.18,26.44,33.06,0,33.23-5.43,65.96-16.27,98.16-10.86,32.2-25.28,60.36-43.23,84.41-17.98,24.08-36.79,41.54-56.45,52.38-56.96,22.38-130.87,38.3-221.73,47.82l59-154.61,28.47-3.07c13.56-1.34,23.73-2.7,30.51-4.06-4.07-8.14-6.1-15.6-6.1-22.38,0-14.92,5.59-36.77,16.78-65.61,11.19-28.81,22.54-47.29,34.08-55.43,10.17-7.46,22.88-13.38,38.14-17.79,15.26-4.41,31.36-6.62,48.31-6.62,23.73,0,44.41,4.58,62.05,13.73Z"/>
      </g>
      <g>
        <path d="M992.65,1276.32v7.62h-60.23v-7.62l11.74-.21-10.22-111.55-41.96,95.03h-6.74l-45.01-95.67-4.13,112.19,11.75.21v7.62h-47.62v-7.62l8.48-.21,20.88-130.02-11.96-.23v-7.6h50.01l35,71.08,30.23-71.08h45v7.6l-11.53.23,17.84,130.02,8.48.21Z"/>
        <path d="M1140.5,1276.32v7.62h-65.45v-7.62l10.66-.21-10-35.65h-36.96l-7.17,35.65,11.08.21v7.62h-49.13v-7.62l10.66-.21,48.7-136.12,26.96-3.69,50.01,139.81,10.66.21ZM1073.31,1232.41l-19.13-68.05-13.7,68.05h32.83Z"/>
        <path d="M1185.5,1174.13c2.61,3.92,5.87,7.39,9.78,10.44,3.91,3.05,9.27,6.81,16.09,11.31,7.96,5.21,14.34,9.83,19.13,13.8,4.78,3.99,8.88,8.78,12.29,14.36,3.41,5.58,5.11,11.85,5.11,18.8,0,7.68-2.11,14.9-6.31,21.63-4.21,6.74-10.51,12.22-18.92,16.42-8.41,4.2-18.55,6.31-30.43,6.31-25.51,0-43.64-10.14-54.36-30.44l24.57-18.91c6.96,14.34,14.79,28.27,23.48,41.74h.22c4.2,0,8.11-1.12,11.74-3.36,3.62-2.25,6.53-5.18,8.7-8.8,2.17-3.62,3.26-7.48,3.26-11.54,0-4.34-1.27-8.36-3.81-12.06-2.54-3.69-5.69-6.95-9.45-9.78-3.77-2.84-8.91-6.27-15.44-10.33-7.82-4.93-14.13-9.27-18.92-13.05-4.78-3.76-8.88-8.36-12.29-13.8-3.41-5.44-5.11-11.71-5.11-18.8,0-7.98,2.28-15.27,6.85-21.85,4.57-6.6,11.08-11.78,19.57-15.54,8.48-3.76,18.44-5.66,29.89-5.66s20.33,1.78,27.5,5.33c7.18,3.55,13.66,8.59,19.47,15.11l-22.83,23.05c-7.68-12.76-15.44-24.71-23.26-35.88-6.53,0-11.56,1.78-15.12,5.33-3.55,3.55-5.32,8-5.32,13.37,0,4.64,1.31,8.92,3.91,12.83Z"/>
        <path d="M1397.05,1146.09v130.02l10.66.21v7.62h-57.4v-7.62l10.66-.21v-60.45h-48.7v60.45l10.65.21v7.62h-57.39v-7.62l10.65-.21v-130.02l-10.65-.23v-7.6h57.39v7.6l-10.65.23v61.53h48.7v-61.53l-10.66-.23v-7.6h57.4v7.6l-10.66.23Z"/>
        <path d="M1559.47,1276.32v7.62h-65.45v-7.62l10.66-.21-10-35.65h-36.96l-7.17,35.65,11.08.21v7.62h-49.13v-7.62l10.66-.21,48.7-136.12,26.96-3.69,50.01,139.81,10.66.21ZM1492.28,1232.41l-19.13-68.05-13.7,68.05h32.83Z"/>
        <path d="M1676.77,1213.17c5.44,3.12,9.53,7.14,12.29,12.06,2.75,4.93,4.13,10.16,4.13,15.67,0,13.47-5.76,24.01-17.29,31.63-11.52,7.62-28.37,11.41-50.54,11.41h-59.8v-7.62l10.66-.21v-130.02l-10.66-.23v-7.6l41.96.44,31.75-2.61c13.91,0,24.56,3.01,31.96,9.03,7.39,6.01,11.08,13.94,11.08,23.8,0,9.27-3.12,17.29-9.35,24.01-6.23,6.74-15.36,12.15-27.39,16.21l11.53-.64c7.68,0,14.24,1.55,19.67,4.67ZM1635.68,1153.81c-5.3-5.3-13.09-7.95-23.38-7.95v62.63c10.58-.73,18.45-3.66,23.6-8.82,5.14-5.14,7.72-12.63,7.72-22.5s-2.65-18.09-7.94-23.37ZM1644.48,1269.37c6.67-4.64,10-12.02,10-22.18s-3.01-17.83-9.02-23.04c-6.02-5.23-14.9-7.82-26.64-7.82h-6.53v60c14.79,0,25.51-2.32,32.18-6.95Z"/>
      </g>
      <path d="M551.32,1134.99c16.94,0,34.41,2.02,52.38,6.1,17.96,4.06,34.07,10.16,48.31,18.3l-62.05,92.57c-27.13-13.56-52.9-20.34-77.3-20.34-8.14,0-15.95,1.01-23.39,3.05l-38.65,43.72-22.38-12.2,100.69-130.19c4.74-.66,12.21-1.01,22.38-1.01Z"/>
    </g>
    <path d="M387.35,683.29c5.43,3.04,9.67,7.29,12.71,12.76,3.04,5.47,4.56,11.74,4.56,18.8s-1.52,13.24-4.56,18.74c-3.04,5.51-7.31,9.78-12.82,12.82-5.51,3.04-11.79,4.56-18.86,4.56s-13.31-1.52-18.75-4.56c-5.43-3.04-9.67-7.29-12.71-12.76-3.04-5.47-4.56-11.74-4.56-18.8s1.52-13.24,4.56-18.75c3.04-5.51,7.31-9.78,12.82-12.82,5.51-3.04,11.79-4.56,18.86-4.56s13.31,1.52,18.75,4.56ZM384.9,742.77c4.86-2.74,8.64-6.53,11.34-11.4,2.7-4.86,4.05-10.37,4.05-16.52s-1.33-11.66-3.99-16.52c-2.66-4.86-6.4-8.66-11.22-11.4-4.83-2.74-10.31-4.1-16.47-4.1s-11.66,1.37-16.52,4.1c-4.86,2.74-8.64,6.53-11.34,11.4-2.7,4.86-4.05,10.37-4.05,16.52s1.33,11.66,3.99,16.52c2.66,4.86,6.4,8.66,11.22,11.4,4.82,2.74,10.31,4.1,16.47,4.1s11.66-1.37,16.52-4.1ZM380.45,727.1c2.05-.87,3.87-2.07,5.47-3.59l2.17,1.71c-2.74,3.65-5.91,6.5-9.51,8.55-3.61,2.05-7.39,3.08-11.34,3.08s-7.35-.91-10.43-2.74c-3.08-1.82-5.45-4.33-7.12-7.52-1.67-3.19-2.51-6.68-2.51-10.48,0-3.49.7-6.76,2.11-9.8,1.4-3.04,3.36-5.73,5.87-8.09,5.17-3.34,9.99-5.01,14.47-5.01,3.57,0,6.87.8,9.91,2.39,3.04,1.6,5.43,3.76,7.18,6.5l-8.89,7.52-9.12-14.24c-2.2,1.29-3.97,3.53-5.3,6.72-1.33,3.19-1.99,6.76-1.99,10.71,0,4.79,1.14,8.59,3.42,11.4,2.28,2.81,5.36,4.22,9.23,4.22,2.2,0,4.33-.44,6.38-1.31Z"/>
  </g>
  <g>
    <path d="M431.09,1448.15v4.92h-38.9v-4.92l7.58-.14-6.6-72.04-27.1,61.37h-4.35l-29.07-61.79-2.67,72.46,7.58.14v4.92h-30.75v-4.92l5.48-.14,13.48-83.97-7.72-.14v-4.91h32.3l22.61,45.92,19.52-45.92h29.07v4.91l-7.44.14,11.52,83.97,5.48.14Z"/>
    <path d="M526.57,1448.15v4.92h-42.26v-4.92l6.88-.14-6.46-23.03h-23.87l-4.63,23.03,7.16.14v4.92h-31.73v-4.92l6.88-.14,31.45-87.9,17.41-2.39,32.3,90.29,6.88.14ZM483.19,1419.79l-12.36-43.95-8.85,43.95h21.21Z"/>
    <path d="M622.34,1448.15v4.92h-33.84l-19.09-37.63.42-.28c-2.15.19-5.19.38-9.13.56v32.3l6.88.14v4.92h-37.07v-4.92l6.88-.14v-83.97l-6.88-.14v-4.91l27.1.28,20.92-1.68c6.74,0,12.52,1.24,17.34,3.72,4.82,2.48,8.47,5.81,10.95,9.97,2.48,4.17,3.72,8.78,3.72,13.83,0,5.81-1.68,10.86-5.05,15.16-3.37,4.31-8.42,7.77-15.16,10.39l25.13,37.35,6.88.14ZM560.7,1410.24c7.77-.46,13.85-2.6,18.25-6.39s6.6-8.91,6.6-15.37c0-4.59-1.08-8.75-3.23-12.5-2.15-3.74-5.11-6.69-8.85-8.85-3.75-2.15-8.01-3.23-12.78-3.23v46.34Z"/>
    <path d="M657.87,1448.02l6.88.14v4.92h-37.07v-4.92l6.88-.14v-83.97l-6.88-.14v-4.91h37.07v4.91l-6.88.14v83.97ZM720.64,1448.15v4.92h-43.67v-4.92l6.88-.14-23.87-41.15,30.47-42.83-6.88-.14v-4.91h33.42v4.91l-7.58.14-31.17,30.19,35.52,53.78,6.88.14Z"/>
    <path d="M797.16,1425.12v27.95h-71.19v-4.92l6.88-.14v-83.97l-6.88-.14v-4.91h68.39v27.24l-5.48-.14-.28-7.02c-10.39-6.46-21.21-11.89-32.44-16.29l.28,39.04h26.26v5.2h-26.26l.28,42.12c11.98-4.59,23.54-10.2,34.68-16.85l.28-7.02,5.48-.14Z"/>
    <path d="M883.8,1358.99v27.24l-5.48-.14-.28-7.02c-9.64-6.93-17.65-12.03-24.01-15.31v84.25l11.09.14v4.92h-45.5v-4.92l11.09-.14v-84.25c-6.36,3.28-14.37,8.38-24.01,15.31l-.28,7.02-5.47.14v-27.24h82.85Z"/>
    <path d="M889.14,1448.15l6.88-.14v-83.97l-6.88-.14v-4.91h37.07v4.91l-6.88.14v83.97l6.88.14v4.92h-37.07v-4.92Z"/>
    <path d="M1029.56,1358.99v4.91l-6.88.14-3.65,88.89-16.99.14-50.69-79.76,5.34,74.7,8.28.14v4.92h-28.65v-4.92l6.88-.14,2.39-83.97-6.88-.14v-4.91h34.68l40.86,63.33-3.65-58.27-8.28-.14v-4.91h27.24Z"/>
    <path d="M1125.47,1404.35v4.92l-6.32.14v43.67h-4.49l-10.25-7.02c-3.65,2.91-7.6,5.15-11.87,6.74-4.26,1.59-8.59,2.39-12.99,2.39-8.24,0-15.49-1.9-21.76-5.69-6.27-3.79-11.14-9.13-14.6-16.01-3.47-6.88-5.2-14.86-5.2-23.94,0-8.61,1.57-16.76,4.7-24.43,3.14-7.68,7.14-13.81,12-18.39,4.78-3.09,9.9-5.46,15.38-7.09,5.48-1.63,10.88-2.46,16.22-2.46,7.11,0,13.64,1.52,19.59,4.56,5.94,3.04,10.65,7.28,14.11,12.71l-17.27,14.46c-5.15-8.71-11-17.98-17.55-27.81-6.46,2.81-11.75,8.01-15.87,15.59-4.12,7.58-6.18,16.19-6.18,25.83,0,11.89,2.69,21.23,8.07,28.02,5.38,6.79,12.75,10.18,22.11,10.18,1.5,0,2.62-.05,3.37-.14v-31.17l-6.88-.14v-4.92h35.67Z"/>
    <path d="M1246.5,1448.15v4.92h-42.26v-4.92l6.88-.14-6.46-23.03h-23.87l-4.63,23.03,7.16.14v4.92h-31.73v-4.92l6.88-.14,31.45-87.9,17.41-2.39,32.3,90.29,6.88.14ZM1203.12,1419.79l-12.36-43.95-8.85,43.95h21.21Z"/>
    <path d="M1336.24,1404.35v4.92l-6.32.14v43.67h-4.49l-10.25-7.02c-3.65,2.91-7.6,5.15-11.87,6.74-4.26,1.59-8.59,2.39-12.99,2.39-8.24,0-15.49-1.9-21.76-5.69-6.27-3.79-11.14-9.13-14.6-16.01-3.47-6.88-5.2-14.86-5.2-23.94,0-8.61,1.57-16.76,4.7-24.43,3.14-7.68,7.14-13.81,12-18.39,4.78-3.09,9.9-5.46,15.38-7.09,5.48-1.63,10.88-2.46,16.22-2.46,7.11,0,13.64,1.52,19.59,4.56,5.94,3.04,10.65,7.28,14.11,12.71l-17.27,14.46c-5.15-8.71-11-17.98-17.55-27.81-6.46,2.81-11.75,8.01-15.87,15.59-4.12,7.58-6.18,16.19-6.18,25.83,0,11.89,2.69,21.23,8.07,28.02,5.38,6.79,12.75,10.18,22.11,10.18,1.5,0,2.62-.05,3.37-.14v-31.17l-6.88-.14v-4.92h35.67Z"/>
    <path d="M1414.45,1425.12v27.95h-71.19v-4.92l6.88-.14v-83.97l-6.88-.14v-4.91h68.39v27.24l-5.48-.14-.28-7.02c-10.39-6.46-21.21-11.89-32.44-16.29l.28,39.04h26.26v5.2h-26.26l.28,42.12c11.98-4.59,23.54-10.2,34.68-16.85l.28-7.02,5.48-.14Z"/>
    <path d="M1516.25,1358.99v4.91l-6.88.14-3.65,88.89-16.99.14-50.69-79.76,5.34,74.7,8.28.14v4.92h-28.65v-4.92l6.88-.14,2.39-83.97-6.88-.14v-4.91h34.68l40.86,63.33-3.65-58.27-8.28-.14v-4.91h27.24Z"/>
    <path d="M1592.08,1436.5c3.84-1.68,7.39-4.12,10.67-7.3l3.65,4.07c-11.52,14.61-24.72,21.91-39.6,21.91-8.52,0-15.94-1.92-22.25-5.76-6.32-3.83-11.22-9.26-14.67-16.29-3.47-7.02-5.2-15.26-5.2-24.72,0-8.15,1.57-16.03,4.7-23.66,3.14-7.63,7.14-13.74,12-18.33,4.78-3.09,9.9-5.45,15.38-7.09,5.48-1.64,10.88-2.46,16.22-2.46,7.11,0,13.64,1.52,19.59,4.56,5.94,3.04,10.65,7.28,14.11,12.71l-17.27,14.46c-4.87-8.61-10.72-17.93-17.55-27.94-4.12,1.68-7.87,4.59-11.24,8.7-3.37,4.12-6.02,9.04-7.93,14.75-1.92,5.71-2.88,11.65-2.88,17.83,0,11.8,2.64,20.92,7.93,27.38,5.29,6.46,12.75,9.69,22.4,9.69,4.12,0,8.09-.84,11.93-2.53Z"/>
    <path d="M1693.18,1358.99v4.91l-5.89.14-26.82,48.86v35.11l6.88.14v4.92h-37.07v-4.92l6.88-.14v-33l-26.82-50.97-5.89-.14v-4.91h41.28v4.91l-6.88.14,17.83,40.72,12.92-40.72-7.16-.14v-4.91h30.75Z"/>
  </g>
</svg>